<?xml version="1.0" encoding="UTF-8" standalone="no"?><!DOCTYPE svg PUBLIC "-//W3C//DTD SVG 1.1//EN" "http://www.w3.org/Graphics/SVG/1.1/DTD/svg11.dtd"><svg width="100%" height="100%" viewBox="0 0 2292 2292" version="1.1" xmlns="http://www.w3.org/2000/svg" xmlnsXlink="http://www.w3.org/1999/xlink" xmlSpace="preserve" xmlnsserif="http://www.serif.com/" style="fill-rule:evenodd;clip-rule:evenodd;stroke-linejoin:round;stroke-miterlimit:2;"><path d="M28.904,818.741c138.438,550 894.375,1306.46 1444.27,1444.27c74.233,18.817 150.504,28.403 227.084,28.542c145.515,-0.068 288.815,-35.84 417.291,-104.167c106.78,-55.773 173.977,-166.681 173.977,-287.149c-0,-85.645 -33.963,-167.89 -94.393,-228.58l-217.292,-217.292c-94.058,-94.024 -236.863,-121.017 -358.75,-67.812c-56.944,24.592 -108.885,59.443 -153.229,102.812c-18.542,18.438 -52.709,21.354 -101.771,8.021c-259.747,-105.563 -466.056,-311.834 -571.667,-571.562c-13.125,-49.063 -10.416,-83.334 8.125,-101.771c43.419,-44.405 78.306,-96.418 102.917,-153.438c53.08,-121.835 26.096,-264.507 -67.813,-358.541l-217.291,-217.188c-72.119,-73.003 -175.181,-106.93 -276.563,-91.042c-102.526,15.057 -191.778,78.581 -239.583,170.521c-104.895,197.717 -131.786,427.799 -75.313,644.375Zm260,-547.708c17.235,-32.99 49.317,-55.762 86.146,-61.146c5.753,-0.917 11.571,-1.369 17.396,-1.354c30.28,-0.01 59.335,12.115 80.625,33.646l217.188,217.187c33.35,32.959 43.25,83.208 24.895,126.354c-14.225,33.912 -34.524,64.943 -59.895,91.563c-75.871,80.831 -99.715,198.033 -61.459,302.083c75.209,281.25 438.021,643.646 718.75,718.75c104.461,38.187 222.008,13.926 302.813,-62.5c26.465,-25.345 57.313,-45.675 91.041,-60c43.175,-18.402 93.481,-8.499 126.459,24.896l217.187,217.188c25.875,25.604 37.905,62.158 32.292,98.125c-5.488,36.88 -28.428,68.942 -61.563,86.041c-152.048,81.716 -329.683,102.438 -496.458,57.917c-473.333,-117.813 -1174.27,-818.75 -1293.44,-1291.88c-44.462,-166.928 -23.706,-344.682 58.02,-496.875Z" style="fill-rule:nonzero;"/></svg>